<svg width="27" height="18" viewBox="0 0 27 18" fill="none" xmlns="http://www.w3.org/2000/svg">
<g clip-path="url(#clip0_115_6386)">
<path d="M20.9062 0H26.6875V3.375H20.9062V0ZM20.9062 4.6875H26.6875V8.0625H20.9062V4.6875ZM20.9062 9.375H26.6875V12.75H20.9062V9.375ZM0 14.0625H5.78125V17.4375H0V14.0625ZM6.96875 14.0625H12.7188V17.4375H6.96875V14.0625ZM13.9375 14.0625H19.7188V17.4375H13.9375V14.0625ZM20.9062 14.0625H26.6875V17.4375H20.9062V14.0625ZM13.9375 9.375H19.7188V12.75H13.9375V9.375ZM6.96875 9.375H12.7188V12.75H6.96875V9.375ZM6.96875 4.6875H12.7188V8.0625H6.96875V4.6875Z" fill="white"/>
</g>
<defs>
<clipPath id="clip0_115_6386">
<rect width="26.6875" height="17.4375" fill="white"/>
</clipPath>
</defs>
</svg>
