<svg width="27" height="27" viewBox="0 0 27 27" fill="none" xmlns="http://www.w3.org/2000/svg">
<g clip-path="url(#clip0_231_3424)">
<mask id="mask0_231_3424" style="mask-type:luminance" maskUnits="userSpaceOnUse" x="0" y="0" width="27" height="27">
<path d="M27 0H0V27H27V0Z" fill="white"/>
</mask>
<g mask="url(#mask0_231_3424)">
<mask id="mask1_231_3424" style="mask-type:luminance" maskUnits="userSpaceOnUse" x="0" y="0" width="27" height="27">
<path d="M26.6875 0H0V26.5312H26.6875V0Z" fill="white"/>
</mask>
<g mask="url(#mask1_231_3424)">
<path d="M13.3438 0C11.5104 0 9.78126 0.354163 8.15625 1.0625C6.53124 1.75 5.11459 2.69791 3.90625 3.90625C2.69791 5.11459 1.75 6.53124 1.0625 8.15625C0.354163 9.78126 0 11.5104 0 13.3438C0 15.0104 0.291664 16.5833 0.875 18.0625C1.45834 19.5625 2.24999 20.8958 3.25 22.0625C4.25001 23.2292 5.43749 24.1979 6.8125 24.9688C8.18751 25.7396 9.66666 26.2604 11.25 26.5312V17.1875H7.875V13.3438H11.25V10.4062C11.25 8.73958 11.7083 7.45834 12.625 6.5625C13.5417 5.66666 14.7708 5.21875 16.3125 5.21875C17.0417 5.21875 17.7187 5.26042 18.3438 5.34375C18.9688 5.42708 19.2812 5.46875 19.2812 5.46875V8.75H17.5938C16.7604 8.75 16.1927 8.96875 15.8906 9.40625C15.5885 9.84375 15.4375 10.3229 15.4375 10.8438V13.3438H19.125L18.5312 17.1875H15.4375V26.5C17.0208 26.25 18.5 25.7396 19.875 24.9688C21.25 24.1979 22.4427 23.2292 23.4531 22.0625C24.4635 20.8958 25.25 19.5625 25.8125 18.0625C26.3958 16.5833 26.6875 15.0104 26.6875 13.3438C26.6875 11.5104 26.3333 9.78126 25.625 8.15625C24.9375 6.53124 23.9896 5.11459 22.7812 3.90625C21.5729 2.69791 20.1563 1.75 18.5312 1.0625C16.9062 0.354163 15.1771 0 13.3438 0Z" fill="white"/>
</g>
</g>
</g>
<defs>
<clipPath id="clip0_231_3424">
<rect width="27" height="27" fill="white"/>
</clipPath>
</defs>
</svg>
