<svg width="27" height="27" viewBox="0 0 27 27" fill="none" xmlns="http://www.w3.org/2000/svg">
<g clip-path="url(#clip0_222_3370)">
<mask id="mask0_222_3370" style="mask-type:luminance" maskUnits="userSpaceOnUse" x="0" y="0" width="27" height="27">
<path d="M26.625 0H0V26.625H26.625V0Z" fill="white"/>
</mask>
<g mask="url(#mask0_222_3370)">
<path d="M19.125 16H23.625C23.875 14.8333 24 13.9375 24 13.3125C24 12.6875 23.875 11.7917 23.625 10.625H19.125C19.25 11.5 19.3125 12.3958 19.3125 13.3125C19.3125 14.2292 19.25 15.125 19.125 16ZM16.75 23.375C17.7917 23.0417 18.875 22.4063 20 21.4688C21.125 20.5312 21.9792 19.5833 22.5625 18.625H18.625C18.2083 20.2917 17.5833 21.875 16.75 23.375ZM16.4375 16C16.5625 15.125 16.625 14.2292 16.625 13.3125C16.625 12.3958 16.5625 11.5 16.4375 10.625H10.1875C10.0625 11.5 10 12.3958 10 13.3125C10 14.2292 10.0625 15.125 10.1875 16H16.4375ZM13.3125 23.9375C14.4792 22.2292 15.3333 20.4583 15.875 18.625H10.75C11.2917 20.4583 12.1458 22.2292 13.3125 23.9375ZM8 8C8.5 6.20832 9.125 4.62501 9.875 3.25C8.83333 3.58334 7.73959 4.21874 6.59375 5.15625C5.44791 6.09376 4.60417 7.04166 4.0625 8H8ZM4.0625 18.625C4.60417 19.5833 5.44791 20.5312 6.59375 21.4688C7.73959 22.4063 8.83333 23.0417 9.875 23.375C9.04166 21.875 8.41667 20.2917 8 18.625H4.0625ZM3 16H7.5C7.375 15.125 7.3125 14.2292 7.3125 13.3125C7.3125 12.3958 7.375 11.5 7.5 10.625H3C2.75 11.7917 2.625 12.6875 2.625 13.3125C2.625 13.9375 2.75 14.8333 3 16ZM13.3125 2.6875C12.1458 4.39584 11.2917 6.16666 10.75 8H15.875C15.3333 6.16666 14.4792 4.39584 13.3125 2.6875ZM22.5625 8C21.9792 7.04166 21.125 6.09376 20 5.15625C18.875 4.21874 17.7917 3.58334 16.75 3.25C17.5 4.62501 18.125 6.20832 18.625 8H22.5625ZM3.875 3.9375C6.50001 1.31249 9.64581 0 13.3125 0C16.9792 0 20.1146 1.30207 22.7188 3.90625C25.3229 6.51043 26.625 9.64581 26.625 13.3125C26.625 16.9792 25.3229 20.1146 22.7188 22.7188C20.1146 25.3229 16.9792 26.625 13.3125 26.625C9.64581 26.625 6.51043 25.3229 3.90625 22.7188C1.30207 20.1146 0 16.9792 0 13.3125C0 9.64581 1.29165 6.52085 3.875 3.9375Z" fill="black"/>
</g>
</g>
<defs>
<clipPath id="clip0_222_3370">
<rect width="27" height="27" fill="white"/>
</clipPath>
</defs>
</svg>
