<svg width="24" height="24" viewBox="0 0 24 24" fill="none" xmlns="http://www.w3.org/2000/svg">
<g clip-path="url(#clip0_115_6379)">
<path d="M22.6562 0H1.34375C0.968748 0 0.651043 0.130207 0.390625 0.390625C0.130207 0.651043 0 0.968748 0 1.34375V22.6562C0 23.0313 0.130207 23.349 0.390625 23.6094C0.651043 23.8698 0.968748 24 1.34375 24H22.6562C23.0313 24 23.349 23.8698 23.6094 23.6094C23.8698 23.349 24 23.0313 24 22.6562V1.34375C24 0.968748 23.8698 0.651043 23.6094 0.390625C23.349 0.130207 23.0313 0 22.6562 0ZM7.125 20.4375H3.5625V9H7.125V20.4375ZM5.34375 7.4375C4.76041 7.4375 4.27084 7.23438 3.875 6.82812C3.47916 6.42187 3.28125 5.9375 3.28125 5.375C3.28125 4.79166 3.47916 4.30209 3.875 3.90625C4.27084 3.51041 4.76041 3.3125 5.34375 3.3125C5.90625 3.3125 6.39062 3.51041 6.79688 3.90625C7.20313 4.30209 7.40625 4.79166 7.40625 5.375C7.40625 5.9375 7.20313 6.42187 6.79688 6.82812C6.39062 7.23438 5.90625 7.4375 5.34375 7.4375ZM20.4375 20.4375H16.9062V14.875C16.9062 14.2083 16.8229 13.5365 16.6562 12.8594C16.4896 12.1823 15.9479 11.8438 15.0312 11.8438C14.1146 11.8438 13.5313 12.1458 13.2812 12.75C13.0312 13.3542 12.9062 14.0312 12.9062 14.7812V20.4375H9.34375V9H12.75V10.5625H12.8125C13.0417 10.1042 13.4427 9.68229 14.0156 9.29688C14.5885 8.91146 15.3125 8.71875 16.1875 8.71875C17.9792 8.71875 19.1354 9.23958 19.6562 10.2812C20.1771 11.3229 20.4375 12.6146 20.4375 14.1562V20.4375Z" fill="white"/>
</g>
<defs>
<clipPath id="clip0_115_6379">
<rect width="24" height="24" fill="white"/>
</clipPath>
</defs>
</svg>
