<svg width="143" height="89" viewBox="0 0 143 89" fill="none" xmlns="http://www.w3.org/2000/svg">
<g clip-path="url(#clip0_103_6249)">
<path d="M75.1704 60.2358C78.5281 59.9269 80.8248 61.269 83.4304 61.2041C85.8714 61.1418 89.5811 57.9749 89.381 62.881C89.2646 65.7779 88.7201 68.7709 88.6163 71.6886C88.5226 74.3103 88.2669 81.3424 88.9961 83.5073C89.2721 84.3302 90.3053 84.8026 90.518 85.3166C91.0194 86.5262 90.5864 87.78 89.4545 88.3667C87.14 89.5633 79.1282 89.0597 77.2392 87.0039C74.3525 83.8655 81.2882 83.7383 78.8826 80.1275C63.6186 87.4322 58.3035 61.7959 75.173 60.2384L75.1704 60.2358ZM76.6644 64.8797C73.5422 65.8402 74.2234 77.0152 78.3787 76.2442C79.5536 76.0262 79.7537 72.7892 79.7866 71.7093C79.8499 69.6457 79.9031 63.883 76.6644 64.8797Z" fill="white"/>
<path d="M133.909 16.5899C146.874 20.2474 145.697 38.8386 132.132 40.4558C134.603 54.0967 117.546 60.2748 109.876 49.5307C105.126 60.7135 88.8113 58.1384 86.6007 46.4183C73.8157 53.3699 61.0737 36.941 72.1672 26.537C71.6279 24.9562 70.4808 23.2793 70.225 21.5946C68.85 12.5326 76.5479 5.5369 85.1447 7.59537C85.8258 7.75891 88.9125 9.28265 89.1328 9.08018C91.8777 -1.94164 106.053 -2.96698 111.773 6.22219C120.008 -4.36872 136.545 3.20586 133.912 16.5899H133.909ZM111.393 11.9278C110.071 -1.66648 90.0546 -0.828035 90.6471 13.2257C81.0071 2.56209 65.5329 15.3361 74.9703 26.8355C64.3149 33.961 72.8104 49.362 84.461 45.3878L88.6264 42.7894C87.9554 45.2087 89.0822 48.3418 90.5458 50.2835C96.4812 58.1748 108.856 54.6523 109.37 44.6013L110.591 47.3658C117.291 58.6628 134.051 51.3478 129.352 38.3791C136.733 39.1656 142.808 32.5281 140.488 25.0159C139.594 22.1215 137.09 19.4323 134.33 18.3628C133.77 18.1448 131.648 17.8462 131.633 17.5062C135.682 6.29747 121.223 -1.62235 113.67 7.13332L111.396 11.9278H111.393Z" fill="white"/>
<path d="M45.3109 60.485C49.2459 59.9866 47.1392 63.5351 48.5648 63.7739C49.018 63.8492 50.6437 61.7362 51.2058 61.3416C53.5937 59.6647 58.0782 60.1761 60.0406 62.3644C62.4614 65.0588 61.4131 71.5743 61.841 75.0397C62.1018 77.1372 64.558 78.4091 63.2236 80.1457C62.0613 81.6591 54.9737 81.5968 53.11 81.1373C49.3599 80.2132 52.1503 78.1417 52.6391 76.2961C53.1278 74.4505 53.2721 68.7137 52.0643 67.1718C51.2413 66.1205 49.332 66.0063 48.5395 67.164C47.7342 68.3374 47.719 74.0248 47.9241 75.5641C48.1849 77.5213 51.0666 79.7849 47.5089 80.8881C45.4958 81.5111 38.7146 81.9186 37.2712 80.2599C35.8279 78.6012 37.5245 78.0301 38.1524 76.9996C38.8868 75.7925 38.983 69.6612 38.8007 68.0596C38.5601 65.9414 34.7593 65.4456 37.4054 63.2703C38.4993 62.3722 43.8144 60.6719 45.3084 60.4824L45.3109 60.485Z" fill="white"/>
<path d="M10.1642 60.2358C14.5044 59.7738 21.4501 61.8193 20.5689 67.5327C20.1663 70.1466 16.2946 71.429 14.4993 69.6379C13.3421 68.4827 13.5725 64.9394 10.9112 65.3885C8.42459 65.809 8.35875 69.3627 9.08042 71.3018C9.97428 73.7003 12.1393 75.1072 14.636 74.9359C16.1857 74.8295 19.08 72.7321 19.7738 75.1176C20.7589 78.5181 15.7274 81.075 13.0965 81.3891C-2.97024 83.31 -4.61616 61.8037 10.1642 60.2306V60.2358Z" fill="white"/>
<path d="M34.0731 76.6725C34.5111 77.202 35.7519 77.6122 35.7443 78.6972C35.7317 80.9218 31.9283 81.319 30.3229 81.4202C28.7175 81.5214 22.8808 81.3891 22.0883 80.0133C20.9007 77.947 23.2049 77.3656 23.8177 76.0495C24.9724 73.5731 23.9241 69.996 24.0735 67.3457C23.7772 66.0037 20.2372 65.2976 22.1186 63.1561C23.129 62.0035 31.8068 59.74 32.9893 60.5395C33.3843 61.0639 33.4451 61.7206 33.4957 62.354C33.8148 66.3853 33.0475 71.1304 33.478 75.076C33.5337 75.5796 33.7566 76.2935 34.0705 76.6751L34.0731 76.6725Z" fill="white"/>
<path d="M49.1041 31.4379C51.064 31.0978 52.8137 31.3756 54.3533 32.6735C54.7508 33.0083 55.0167 33.7066 55.2396 33.839C55.5991 34.0571 57.0805 34.0597 57.8249 34.3011C62.3069 35.7625 62.5829 42.2027 58.3896 44.3417C59.8912 50.4159 53.6696 54.0708 49.0788 50.0602C46.9112 52.5834 42.9509 52.8274 40.6896 50.312C40.2617 49.8344 39.7071 48.443 39.5704 48.3496C39.3754 48.2146 37.1117 48.0433 36.2026 47.6539C32.4043 46.0237 32.1359 40.4999 35.5265 38.2597C36.2026 37.8132 37.6586 37.6574 37.9194 37.3408C38.2132 36.9851 38.436 35.5211 38.9475 34.7631C39.8059 33.4938 41.7202 32.4321 43.2294 32.3905C44.2474 32.362 46.1085 33.2498 46.4655 33.1563C47.0176 33.0109 47.6278 31.6923 49.1091 31.4353L49.1041 31.4379ZM56.2499 43.5681C59.4987 43.0931 61.1066 39.0384 58.6504 36.5672C57.0425 34.9474 55.984 35.952 54.647 35.4848C54.366 35.3861 53.6747 34.1765 53.0467 33.7533C50.831 32.2608 48.2482 32.9149 46.9998 35.2849C46.4174 35.3757 45.4653 34.1479 44.4727 33.987C41.429 33.499 39.2767 35.5107 39.4362 38.6516C31.6827 38.5997 33.678 48.9856 40.8188 46.4131C40.7631 51.5762 48.1216 52.2303 48.9167 47.1945C49.4687 47.6098 49.5067 48.4379 50.041 49.0193C53.4569 52.7417 59.4025 47.9602 56.2499 43.5655V43.5681Z" fill="white"/>
<path d="M28.6314 52.4536C33.4122 52.1083 35.167 56.0929 30.3736 58.1332C27.9908 59.1482 21.2501 60.1449 22.111 55.6282C22.4782 53.7047 27.0159 52.5704 28.6314 52.4536Z" fill="white"/>
<path d="M94.1238 13.2698C95.3519 13.0102 97.094 14.3627 98.6209 14.5184C103.409 15.0142 109.73 13.7994 114.285 14.5366C115.369 14.7131 115.86 15.5619 115.642 16.6573L106.336 44.9906C105.351 46.2055 102.012 45.5877 100.571 45.1879C97.4055 44.3105 97.2384 43.8173 98.6133 40.9619C100.913 36.1882 104.422 30.8305 106.296 26.0204C106.62 25.1872 107.359 23.8296 106.319 23.2196C105.113 22.5109 98.1525 22.6173 96.8813 23.3701C96.0888 23.84 95.7596 25.0808 94.7619 25.3455C88.7834 26.929 89.9862 14.142 94.1238 13.2672V13.2698Z" fill="white"/>
</g>
<defs>
<clipPath id="clip0_103_6249">
<rect width="143" height="89" fill="white"/>
</clipPath>
</defs>
</svg>
