<svg width="27" height="27" viewBox="0 0 27 27" fill="none" xmlns="http://www.w3.org/2000/svg">
<g clip-path="url(#clip0_115_6384)">
<path d="M13.3125 0C11.5 0 9.78126 0.354163 8.15625 1.0625C6.53124 1.75 5.11459 2.69791 3.90625 3.90625C2.69791 5.11459 1.75 6.53124 1.0625 8.15625C0.354163 9.78126 0 11.5 0 13.3125C0 15.1458 0.354163 16.875 1.0625 18.5C1.75 20.125 2.69791 21.5365 3.90625 22.7344C5.11459 23.9323 6.53124 24.8854 8.15625 25.5938C9.78126 26.3021 11.5 26.6562 13.3125 26.6562C15.1458 26.6562 16.875 26.3021 18.5 25.5938C20.125 24.8854 21.5365 23.9323 22.7344 22.7344C23.9323 21.5365 24.8854 20.125 25.5938 18.5C26.3021 16.875 26.6562 15.1458 26.6562 13.3125C26.6562 11.5 26.3021 9.78126 25.5938 8.15625C24.9062 6.53124 23.9635 5.11459 22.7656 3.90625C21.5677 2.69791 20.1563 1.75 18.5312 1.0625C16.9062 0.354163 15.1667 0 13.3125 0ZM19.4375 19.25C19.3125 19.4583 19.1458 19.5885 18.9375 19.6406C18.7292 19.6927 18.5208 19.6563 18.3125 19.5312C17.5417 19.0312 16.7083 18.6354 15.8125 18.3438C14.9375 18.0521 14.0104 17.8542 13.0312 17.75C12.0521 17.6458 11.0313 17.6354 9.96875 17.7188C8.88541 17.8021 7.76042 17.9792 6.59375 18.25C6.36458 18.3125 6.15625 18.2813 5.96875 18.1562C5.78125 18.0312 5.65625 17.8646 5.59375 17.6562C5.53125 17.4271 5.56771 17.2188 5.70312 17.0312C5.83854 16.8437 6 16.7188 6.1875 16.6562C7.45834 16.3646 8.68749 16.1771 9.875 16.0938C11.0417 16.0104 12.1667 16.0312 13.25 16.1562C14.3333 16.2813 15.3646 16.5104 16.3438 16.8438C17.3229 17.1563 18.25 17.5833 19.125 18.125C19.3542 18.2292 19.4896 18.3906 19.5312 18.6094C19.5729 18.8281 19.5417 19.0417 19.4375 19.25ZM21.0625 15.5938C20.8958 15.8229 20.6771 15.974 20.4062 16.0469C20.1354 16.1198 19.8854 16.0729 19.6562 15.9062C18.7604 15.3646 17.7604 14.9167 16.6562 14.5625C15.5521 14.2083 14.4167 13.9635 13.25 13.8281C12.0833 13.6927 10.9063 13.6667 9.71875 13.75C8.55208 13.8542 7.44792 14.0729 6.40625 14.4062C6.13541 14.4688 5.86979 14.4375 5.60938 14.3125C5.34896 14.1875 5.1875 13.9896 5.125 13.7188C5.0625 13.4479 5.09375 13.1875 5.21875 12.9375C5.34375 12.6875 5.54166 12.5312 5.8125 12.4688C7.02084 12.0937 8.29166 11.8542 9.625 11.75C10.9375 11.6667 12.25 11.7031 13.5625 11.8594C14.875 12.0156 16.1458 12.3021 17.375 12.7188C18.625 13.1146 19.7604 13.625 20.7812 14.25C20.9896 14.3542 21.1302 14.5469 21.2031 14.8281C21.276 15.1094 21.2292 15.3646 21.0625 15.5938ZM21.1875 11.8438C20.125 11.2187 18.9063 10.7292 17.5312 10.375C16.1771 10.0208 14.7969 9.78646 13.3906 9.67188C11.9844 9.55729 10.6042 9.5625 9.25 9.6875C7.91666 9.79167 6.73959 10.0104 5.71875 10.3438C5.67708 10.3438 5.625 10.349 5.5625 10.3594C5.5 10.3698 5.4375 10.375 5.375 10.375C5.10416 10.375 4.86458 10.2969 4.65625 10.1406C4.44792 9.98437 4.30208 9.78125 4.21875 9.53125H4.1875C4.1875 9.46875 4.18229 9.41146 4.17188 9.35938C4.16146 9.30729 4.15625 9.25 4.15625 9.1875C4.15625 8.91666 4.23437 8.67188 4.39062 8.45312C4.54688 8.23437 4.75 8.08333 5 8C6.18751 7.64583 7.53124 7.40625 9.03125 7.28125C10.5313 7.13542 12.0729 7.13021 13.6562 7.26562C15.2396 7.40104 16.7917 7.67708 18.3125 8.09375C19.8333 8.48959 21.2083 9.05208 22.4375 9.78125C22.75 9.94792 22.9479 10.2083 23.0312 10.5625C23.1146 10.9167 23.0729 11.2396 22.9062 11.5312C22.7396 11.7604 22.4844 11.9115 22.1406 11.9844C21.7969 12.0573 21.4792 12.0104 21.1875 11.8438Z" fill="white"/>
</g>
<defs>
<clipPath id="clip0_115_6384">
<rect width="26.6562" height="26.6562" fill="white"/>
</clipPath>
</defs>
</svg>
