<svg width="24" height="27" viewBox="0 0 24 27" fill="none" xmlns="http://www.w3.org/2000/svg">
<g clip-path="url(#clip0_231_3454)">
<mask id="mask0_231_3454" style="mask-type:luminance" maskUnits="userSpaceOnUse" x="0" y="0" width="24" height="27">
<path d="M24 0H0V27H24V0Z" fill="white"/>
</mask>
<g mask="url(#mask0_231_3454)">
<mask id="mask1_231_3454" style="mask-type:luminance" maskUnits="userSpaceOnUse" x="0" y="0" width="24" height="27">
<path d="M23.25 0H0V26.6562H23.25V0Z" fill="white"/>
</mask>
<g mask="url(#mask1_231_3454)">
<path d="M21.875 6.25C20.5208 5.95833 19.3802 5.29688 18.4531 4.26562C17.526 3.23437 16.9896 2.02084 16.8438 0.625V0.59375V0H12.25V18.25C12.25 19.3125 11.875 20.2187 11.125 20.9688C10.375 21.7188 9.45834 22.0938 8.375 22.0938C7.75 22.0938 7.17188 21.9531 6.64062 21.6719C6.10937 21.3906 5.66667 21.0208 5.3125 20.5625C5.0625 20.2292 4.86979 19.8646 4.73438 19.4688C4.59896 19.0729 4.53125 18.6563 4.53125 18.2188C4.53125 17.1562 4.90625 16.25 5.65625 15.5C6.40625 14.75 7.31249 14.375 8.375 14.375C8.375 14.375 8.38542 14.375 8.40625 14.375H8.375C8.39583 14.375 8.40625 14.375 8.40625 14.375C8.61458 14.375 8.81771 14.3906 9.01562 14.4219C9.21354 14.4531 9.40625 14.5 9.59375 14.5625L9.5625 14.5312V9.875C9.39583 9.85417 9.21875 9.83854 9.03125 9.82812C8.84375 9.81771 8.64583 9.8125 8.4375 9.8125C8.39583 9.8125 8.35938 9.8125 8.32812 9.8125C8.29688 9.8125 8.26042 9.8125 8.21875 9.8125C7.09374 9.83333 6.03126 10.0729 5.03125 10.5312C4.03124 10.9896 3.16146 11.599 2.42188 12.3594C1.68229 13.1198 1.09375 14 0.65625 15C0.218748 16.0208 0 17.1042 0 18.25C0 19.3958 0.218748 20.474 0.65625 21.4844C1.09375 22.4948 1.67708 23.3854 2.40625 24.1562C3.17709 24.9271 4.08333 25.5365 5.125 25.9844C6.16667 26.4323 7.27083 26.6562 8.4375 26.6562C9.60417 26.6562 10.6979 26.4375 11.7188 26C12.7604 25.5625 13.6615 24.9635 14.4219 24.2031C15.1823 23.4427 15.7812 22.5521 16.2188 21.5312C16.6771 20.5104 16.9062 19.4167 16.9062 18.25V8.90625C17.7813 9.53125 18.7552 10.026 19.8281 10.3906C20.901 10.7552 22.0312 10.9375 23.2188 10.9375C23.2188 10.9375 23.224 10.9375 23.2344 10.9375C23.2448 10.9375 23.25 10.9375 23.25 10.9375V6.40625C23.25 6.40625 23.2396 6.40625 23.2188 6.40625C22.9896 6.40625 22.7656 6.39062 22.5469 6.35938C22.3281 6.32812 22.1042 6.29167 21.875 6.25Z" fill="white"/>
</g>
</g>
</g>
<defs>
<clipPath id="clip0_231_3454">
<rect width="24" height="27" fill="white"/>
</clipPath>
</defs>
</svg>
