<svg width="27" height="19" viewBox="0 0 27 19" fill="none" xmlns="http://www.w3.org/2000/svg">
<g clip-path="url(#clip0_222_3401)">
<mask id="mask0_222_3401" style="mask-type:luminance" maskUnits="userSpaceOnUse" x="0" y="0" width="27" height="19">
<path d="M26.6875 0H0V18.6875H26.6875V0Z" fill="white"/>
</mask>
<g mask="url(#mask0_222_3401)">
<path d="M26.125 2.9375C25.9792 2.375 25.6979 1.88542 25.2812 1.46875C24.8646 1.05208 24.375 0.760417 23.8125 0.59375H23.7812C23.2604 0.447916 22.4271 0.333334 21.2812 0.25C20.1146 0.1875 18.9479 0.135417 17.7812 0.09375C16.6146 0.052083 15.5833 0.03125 14.6875 0.03125C13.7917 0.010417 13.3438 0 13.3438 0C13.3438 0 12.8958 0.010417 12 0.03125C11.1042 0.03125 10.0729 0.046875 8.90625 0.078125C7.73958 0.109375 6.57292 0.15625 5.40625 0.21875C4.26041 0.302084 3.42709 0.416666 2.90625 0.5625C2.32291 0.729167 1.82292 1.02083 1.40625 1.4375C0.989581 1.85417 0.708334 2.34375 0.5625 2.90625C0.270832 3.96876 0.104167 5.30728 0.0625 6.92188C0.020833 8.53647 0 9.34375 0 9.34375C0 9.34375 0.020833 10.1562 0.0625 11.7812C0.104167 13.4063 0.260415 14.7292 0.53125 15.75C0.677084 16.3333 0.96354 16.8333 1.39062 17.25C1.81771 17.6667 2.3125 17.9583 2.875 18.125C3.41667 18.25 4.26041 18.3542 5.40625 18.4375C6.55209 18.5208 7.71354 18.5833 8.89062 18.625C10.0677 18.6667 11.1042 18.6875 12 18.6875C12.875 18.6875 13.3125 18.6875 13.3125 18.6875C13.3125 18.6875 13.7604 18.6875 14.6562 18.6875C15.5521 18.6875 16.5885 18.6719 17.7656 18.6406C18.9427 18.6094 20.1042 18.5521 21.25 18.4688C22.3958 18.4062 23.2292 18.3021 23.75 18.1562C24.3333 17.9896 24.8333 17.6979 25.25 17.2812C25.6667 16.8646 25.9583 16.3854 26.125 15.8438V15.8125C26.3958 14.7708 26.5573 13.4375 26.6094 11.8125C26.6615 10.1875 26.6875 9.375 26.6875 9.375C26.6875 9.375 26.6667 8.56251 26.625 6.9375C26.5833 5.31249 26.4167 3.97917 26.125 2.9375ZM10.6562 13.3438L10.6875 5.34375L17.625 9.34375L10.6562 13.3438Z" fill="black"/>
</g>
</g>
<defs>
<clipPath id="clip0_222_3401">
<rect width="27" height="19" fill="white"/>
</clipPath>
</defs>
</svg>
